<svg width="36" height="33" viewBox="0 0 36 33" fill="none" xmlns="http://www.w3.org/2000/svg">
<path d="M22.005 7.12318C20.9866 6.23213 19.6675 5.76161 18.315 5.80695C17.2804 5.79139 16.2574 6.02685 15.3338 6.49319C14.5103 6.90781 13.8145 7.53757 13.32 8.31568C13.1952 8.50192 13.1115 8.71269 13.0746 8.93387C13.0378 9.15504 13.0486 9.38153 13.1063 9.5982C13.1528 9.81003 13.2497 10.0075 13.3887 10.174C13.5277 10.3404 13.7048 10.4709 13.905 10.5545C14.0974 10.6349 14.304 10.6763 14.5125 10.6763C14.7211 10.6763 14.9276 10.6349 15.12 10.5545C15.4936 10.3959 15.8083 10.1245 16.02 9.7782C16.2534 9.45333 16.5729 9.20005 16.9425 9.04692C17.3255 8.87851 17.7391 8.79047 18.1575 8.7882C18.7163 8.75942 19.2658 8.93989 19.6988 9.29443C19.8814 9.44852 20.0268 9.6419 20.1242 9.86008C20.2216 10.0783 20.2685 10.3156 20.2613 10.5545C20.2496 11.0169 20.1135 11.4677 19.8675 11.8594C19.5069 12.4018 19.0714 12.8905 18.5738 13.3107C17.9666 13.8283 17.4462 14.4398 17.0325 15.122C16.6879 15.6611 16.4937 16.2825 16.47 16.9219C16.4676 17.1235 16.5085 17.3233 16.59 17.5077C16.6715 17.6921 16.7917 17.8568 16.9425 17.9907C17.245 18.2795 17.6493 18.4372 18.0675 18.4295C18.2618 18.4331 18.4548 18.397 18.6347 18.3235C18.8146 18.25 18.9776 18.1406 19.1137 18.0019C19.3818 17.7299 19.5655 17.386 19.6425 17.0119C19.7003 16.6696 19.8224 16.3413 20.0025 16.0444C20.3363 15.5962 20.7131 15.1818 21.1275 14.807C21.8557 14.139 22.4981 13.3832 23.04 12.557C23.3856 11.9262 23.5638 11.2174 23.5575 10.4982C23.5661 9.85557 23.4311 9.21914 23.1625 8.63528C22.894 8.05142 22.4985 7.53484 22.005 7.12318Z" fill="white"/>
<path d="M17.8987 20.0607C17.6212 20.0552 17.3454 20.1062 17.0882 20.2107C16.831 20.3151 16.5977 20.4708 16.4025 20.6682C16.0142 21.0672 15.797 21.602 15.797 22.1588C15.797 22.7155 16.0142 23.2504 16.4025 23.6494C16.8035 24.0384 17.3401 24.256 17.8987 24.256C18.4574 24.256 18.994 24.0384 19.395 23.6494C19.5895 23.4544 19.7433 23.2227 19.8476 22.9678C19.9519 22.7129 20.0046 22.4398 20.0025 22.1644C20.0059 21.8861 19.9527 21.6101 19.8464 21.3529C19.74 21.0957 19.5826 20.8628 19.3837 20.6682C19.1915 20.47 18.9603 20.3137 18.7048 20.2092C18.4492 20.1046 18.1748 20.0541 17.8987 20.0607Z" fill="white"/>
<path fill-rule="evenodd" clip-rule="evenodd" d="M0 2.43198C0 1.18934 1.00736 0.181976 2.25 0.181976H33.75C34.9926 0.181976 36 1.18934 36 2.43198V27.182C36 28.4246 34.9926 29.432 33.75 29.432H23.432C22.8352 29.432 22.2629 29.669 21.841 30.091L19.591 32.341C18.7123 33.2197 17.2877 33.2197 16.409 32.341L14.159 30.091C13.7371 29.669 13.1648 29.432 12.568 29.432H2.25C1.00736 29.432 0 28.4246 0 27.182V2.43198ZM3.375 26.057V3.55698H32.625V26.057H23.432C21.9401 26.057 20.5094 26.6496 19.4545 27.7045L18 29.159L16.5455 27.7045C15.4906 26.6496 14.0599 26.057 12.568 26.057H3.375Z" fill="white"/>
</svg>
