<svg width="36" height="36" viewBox="0 0 36 36" fill="none" xmlns="http://www.w3.org/2000/svg">
<path fill-rule="evenodd" clip-rule="evenodd" d="M10.6875 3.375C9.94158 3.375 9.22621 3.67132 8.69876 4.19876C8.17132 4.72621 7.875 5.44158 7.875 6.1875C7.875 6.93342 8.17132 7.64879 8.69876 8.17624C9.22621 8.70368 9.94158 9 10.6875 9H15.8827C15.3585 7.1595 14.6633 5.84775 13.9073 4.96575C12.9398 3.83625 11.8485 3.375 10.6875 3.375ZM4.5 6.1875C4.5 7.2 4.743 8.15625 5.175 9H3.9375C2.89321 9 1.89169 9.41484 1.15327 10.1533C0.414843 10.8917 0 11.8932 0 12.9375L0 17.4375C0 19.008 0.92025 20.3625 2.25 20.997V32.0625C2.25 34.236 4.014 36 6.1875 36H29.8125C30.8568 36 31.8583 35.5852 32.5967 34.8467C33.3352 34.1083 33.75 33.1068 33.75 32.0625V20.997C35.0798 20.3647 36 19.008 36 17.4375V12.9375C36 12.4204 35.8982 11.9084 35.7003 11.4307C35.5024 10.953 35.2124 10.5189 34.8467 10.1533C34.4811 9.78764 34.047 9.4976 33.5693 9.29972C33.0916 9.10185 32.5796 9 32.0625 9H30.825C31.3064 8.05663 31.5376 7.00549 31.4965 5.94718C31.4553 4.88888 31.1432 3.85885 30.5901 2.95569C30.0369 2.05254 29.2611 1.3065 28.3371 0.788981C27.413 0.271466 26.3716 -0.000196417 25.3125 1.0655e-07C23.0985 1.0655e-07 21.096 0.945 19.53 2.7675C18.9257 3.48484 18.4118 4.27376 18 5.1165C17.5879 4.27533 17.074 3.48794 16.47 2.772C14.9018 0.945 12.8993 1.0655e-07 10.6875 1.0655e-07C9.04647 1.0655e-07 7.47266 0.651896 6.31228 1.81228C5.1519 2.97266 4.5 4.54647 4.5 6.1875ZM20.1173 9H25.3125C26.0584 9 26.7738 8.70368 27.3012 8.17624C27.8287 7.64879 28.125 6.93342 28.125 6.1875C28.125 5.44158 27.8287 4.72621 27.3012 4.19876C26.7738 3.67132 26.0584 3.375 25.3125 3.375C24.1515 3.375 23.0625 3.83625 22.095 4.96575C21.3368 5.84775 20.6415 7.1595 20.1173 9ZM15.9772 12.375H3.9375C3.78832 12.375 3.64524 12.4343 3.53975 12.5398C3.43426 12.6452 3.375 12.7883 3.375 12.9375V17.4375C3.375 17.748 3.627 18 3.9375 18H16.3125V12.375H15.9772ZM19.6875 12.375V18H32.0625C32.2117 18 32.3548 17.9407 32.4602 17.8352C32.5657 17.7298 32.625 17.5867 32.625 17.4375V12.9375C32.625 12.7883 32.5657 12.6452 32.4602 12.5398C32.3548 12.4343 32.2117 12.375 32.0625 12.375H19.6875ZM19.6875 21.375H30.375V32.0625C30.375 32.2117 30.3157 32.3548 30.2102 32.4602C30.1048 32.5657 29.9617 32.625 29.8125 32.625H19.6875V21.375ZM16.3125 21.375V32.625H6.1875C6.03832 32.625 5.89524 32.5657 5.78975 32.4602C5.68426 32.3548 5.625 32.2117 5.625 32.0625V21.375H16.3125Z" fill="white"/>
</svg>
