<svg width="36" height="36" viewBox="0 0 36 36" fill="none" xmlns="http://www.w3.org/2000/svg">
<path d="M15.764 17.2174C15.764 16.0994 16.6584 15.205 18 15.205C19.3416 15.205 20.236 16.0994 20.236 17.2174V26.8323C20.236 27.9504 19.3416 28.8447 18 28.8447C16.6584 28.8447 15.764 27.9503 15.764 26.8323V17.2174Z" fill="white"/>
<path d="M20.236 9.61494C20.236 10.9566 19.3416 11.8509 18 11.8509C16.6584 11.8509 15.764 10.9565 15.764 9.61494C15.764 8.27331 16.6584 7.3789 18 7.3789C19.3416 7.3789 20.236 8.27331 20.236 9.61494Z" fill="white"/>
<path fill-rule="evenodd" clip-rule="evenodd" d="M36 18C36 27.9411 27.9411 36 18 36C8.05888 36 0 27.9411 0 18C0 8.05888 8.05888 0 18 0C27.9411 0 36 8.05888 36 18ZM32.625 18C32.625 26.0772 26.0772 32.625 18 32.625C9.92284 32.625 3.375 26.0772 3.375 18C3.375 9.92284 9.92284 3.375 18 3.375C26.0772 3.375 32.625 9.92284 32.625 18Z" fill="white"/>
</svg>
